<svg width="102" height="41" viewBox="0 0 102 41" fill="none" xmlns="http://www.w3.org/2000/svg">
<path d="M38.7954 1.09091L44.8576 18.3409H32.7333L38.7954 1.09091Z" fill="url(#paint0_linear_1284_1850)"/>
<path d="M8.06818 29.0909H0V0H8.69318C11.4205 0 13.7547 0.577652 15.696 1.73295C17.6373 2.88826 19.124 4.54545 20.1562 6.70455C21.1979 8.85417 21.714 11.4347 21.7045 14.446C21.6951 17.5237 21.1553 20.1562 20.0852 22.3438C19.0151 24.5218 17.4669 26.1932 15.4403 27.358C13.4138 28.5133 10.9564 29.0909 8.06818 29.0909ZM1.77557 27.4432H7.99716C10.5919 27.4432 12.7794 26.9271 14.5597 25.8949C16.34 24.8532 17.6847 23.3617 18.5937 21.4205C19.5123 19.4792 19.9669 17.1544 19.9574 14.446C19.9574 11.7756 19.517 9.48864 18.6364 7.58523C17.7557 5.67235 16.4725 4.20455 14.7869 3.18182C13.1108 2.15909 11.0559 1.64773 8.62216 1.64773H1.77557V27.4432Z" fill="black"/>
<path d="M26.0084 0V29.0909H24.2328V0H26.0084Z" fill="black"/>
<path d="M28.906 29.0909H27.031L37.5281 0H39.5736L50.0707 29.0909H48.1957L38.6219 2.28693H38.4798L28.906 29.0909ZM31.5622 18.1392H45.5395V19.7869H31.5622V18.1392Z" fill="black"/>
<path d="M73.327 0V29.0909H71.594L53.0429 3.22443H52.8724V29.0909H51.0969V0H52.844L71.3952 25.8949H71.5656V0H73.327Z" fill="black"/>
<path d="M100.795 29.0909L83.5455 35.1531V23.0287L100.795 29.0909Z" fill="url(#paint1_linear_1284_1850)"/>
<path d="M72.8097 19.1787L72.8109 17.3037L101.895 27.8187L101.894 29.8641L72.7968 40.3435L72.7979 38.4685L99.6077 28.911L99.6078 28.769L72.8097 19.1787ZM83.7598 21.8417L83.7512 35.819L82.1035 35.8179L82.1121 21.8407L83.7598 21.8417Z" fill="black"/>
<path d="M0 27.9991H82.7955V29.9991H0.000932336L0 27.9991Z" fill="black"/>
<defs>
<linearGradient id="paint0_linear_1284_1850" x1="39.4593" y1="1.0918" x2="39.4593" y2="18.6156" gradientUnits="userSpaceOnUse">
<stop stop-color="white"/>
<stop offset="1" stop-color="#DA96FF"/>
</linearGradient>
<linearGradient id="paint1_linear_1284_1850" x1="100.798" y1="29.6303" x2="83.309" y2="29.6303" gradientUnits="userSpaceOnUse">
<stop stop-color="white"/>
<stop offset="1" stop-color="#AEFF96"/>
</linearGradient>
</defs>
</svg>
